<svg width="24" height="24" viewBox="0 0 24 24" fill="none" xmlns="http://www.w3.org/2000/svg">
<path fill-rule="evenodd" clip-rule="evenodd" d="M2.36751 1.06501C3.47524 0.115326 5.1431 0.243441 6.09279 1.35117C6.17156 1.44304 6.24392 1.54022 6.30936 1.64202L8.31243 4.75769C9.05549 5.90551 8.96371 7.39336 8.08676 8.41595L7.27111 9.32739C6.58095 10.0986 6.58961 11.2747 7.29122 12.0575C7.93006 12.9486 8.63197 13.7767 9.39696 14.5417L9.7847 14.9189C10.4397 15.5389 11.1385 16.115 11.8811 16.6474C12.6248 17.3139 13.7234 17.3551 14.4926 16.7658L14.6112 16.6675L15.5227 15.8519C16.4988 15.0148 17.8988 14.8931 19.0224 15.53L19.1809 15.6262L22.2966 17.6293C22.3984 17.6947 22.4956 17.7671 22.5875 17.8458C23.6952 18.7955 23.8233 20.4634 22.8736 21.5711C20.3067 24.138 14.6791 25.1345 6.96011 17.5867L6.65433 17.2843C-1.22181 9.40816 -0.233126 3.66565 2.36751 1.06501Z" fill="#545458" fill-opacity="0.65"/>
</svg>
