<svg width="16" height="16" viewBox="0 0 16 16" fill="none" xmlns="http://www.w3.org/2000/svg">
<path fill-rule="evenodd" clip-rule="evenodd" d="M10.5766 9.24229C12.2142 7.08667 12.0492 3.99894 10.0815 2.03123C7.93359 -0.116652 4.45118 -0.116652 2.3033 2.03123C0.155412 4.17911 0.155412 7.66152 2.3033 9.80941C4.27125 11.7774 7.35951 11.9422 9.51516 10.304L13.4593 14.2479L13.5361 14.315C13.83 14.5387 14.2514 14.5163 14.5199 14.2479C14.8128 13.955 14.8128 13.4801 14.5199 13.1872L10.5766 9.24229ZM3.0104 2.73834C4.76776 0.980979 7.617 0.980979 9.37436 2.73834C11.1317 4.4957 11.1317 7.34494 9.37436 9.1023C7.617 10.8597 4.76776 10.8597 3.0104 9.1023C1.25304 7.34494 1.25304 4.4957 3.0104 2.73834Z" fill="#3C3C43" fill-opacity="0.6"/>
</svg>
